<svg width="52" height="32" viewBox="0 0 52 32" fill="none" xmlns="http://www.w3.org/2000/svg">
<path fill-rule="evenodd" clip-rule="evenodd" d="M0 0H51.8518V31.9691H0V0Z" fill="#548BCD"/>
<path d="M31.5979 17.24C31.5979 17.56 31.5779 17.8933 31.5379 18.24H23.7979C23.8512 18.9333 24.0712 19.4667 24.4579 19.84C24.8579 20.2 25.3446 20.38 25.9179 20.38C26.7712 20.38 27.3646 20.02 27.6979 19.3H31.3379C31.1512 20.0333 30.8112 20.6933 30.3179 21.28C29.8379 21.8667 29.2312 22.3267 28.4979 22.66C27.7646 22.9933 26.9446 23.16 26.0379 23.16C24.9446 23.16 23.9712 22.9267 23.1179 22.46C22.2646 21.9933 21.5979 21.3267 21.1179 20.46C20.6379 19.5933 20.3979 18.58 20.3979 17.42C20.3979 16.26 20.6312 15.2467 21.0979 14.38C21.5779 13.5133 22.2446 12.8467 23.0979 12.38C23.9512 11.9133 24.9312 11.68 26.0379 11.68C27.1179 11.68 28.0779 11.9067 28.9179 12.36C29.7579 12.8133 30.4112 13.46 30.8779 14.3C31.3579 15.14 31.5979 16.12 31.5979 17.24ZM28.0979 16.34C28.0979 15.7533 27.8979 15.2867 27.4979 14.94C27.0979 14.5933 26.5979 14.42 25.9979 14.42C25.4246 14.42 24.9379 14.5867 24.5379 14.92C24.1512 15.2533 23.9112 15.7267 23.8179 16.34H28.0979Z" fill="white"/>
</svg>
