<svg width="160" height="50" viewBox="0 0 160 50" fill="none" xmlns="http://www.w3.org/2000/svg">
<path d="M27.6993 25.96C30.3019 26.5147 32.3926 27.816 33.9713 29.864C35.5499 31.8693 36.3393 34.1733 36.3393 36.776C36.3393 40.5307 35.0166 43.5173 32.3713 45.736C29.7686 47.912 26.1206 49 21.4273 49H0.49925V4.072H20.7233C25.2886 4.072 28.8513 5.11733 31.4113 7.208C34.0139 9.29866 35.3153 12.136 35.3153 15.72C35.3153 18.3653 34.6113 20.5627 33.2033 22.312C31.8379 24.0613 30.0033 25.2773 27.6993 25.96ZM11.4433 22.248H18.6113C20.4033 22.248 21.7686 21.864 22.7073 21.096C23.6886 20.2853 24.1793 19.112 24.1793 17.576C24.1793 16.04 23.6886 14.8667 22.7073 14.056C21.7686 13.2453 20.4033 12.84 18.6113 12.84H11.4433V22.248ZM19.5073 40.168C21.3419 40.168 22.7499 39.7627 23.7313 38.952C24.7553 38.0987 25.2673 36.8827 25.2673 35.304C25.2673 33.7253 24.7339 32.488 23.6673 31.592C22.6433 30.696 21.2139 30.248 19.3793 30.248H11.4433V40.168H19.5073ZM70.2068 21.992V31.08H42.0468V21.992H70.2068ZM86.5958 44.264H102.212V49H80.7718V4.392H86.5958V44.264ZM111.405 8.232C110.295 8.232 109.357 7.848 108.589 7.08C107.821 6.312 107.437 5.37333 107.437 4.264C107.437 3.15466 107.821 2.216 108.589 1.448C109.357 0.679998 110.295 0.295998 111.405 0.295998C112.471 0.295998 113.367 0.679998 114.093 1.448C114.861 2.216 115.245 3.15466 115.245 4.264C115.245 5.37333 114.861 6.312 114.093 7.08C113.367 7.848 112.471 8.232 111.405 8.232ZM114.221 13.928V49H108.397V13.928H114.221ZM129.971 20.456C131.165 18.3653 132.915 16.6587 135.219 15.336C137.523 14.0133 140.147 13.352 143.091 13.352C146.248 13.352 149.085 14.0987 151.603 15.592C154.12 17.0853 156.104 19.1973 157.555 21.928C159.005 24.616 159.731 27.752 159.731 31.336C159.731 34.8773 159.005 38.0347 157.555 40.808C156.104 43.5813 154.099 45.736 151.539 47.272C149.021 48.808 146.205 49.576 143.091 49.576C140.061 49.576 137.395 48.9147 135.091 47.592C132.829 46.2693 131.123 44.584 129.971 42.536V49H124.147V1.64H129.971V20.456ZM153.779 31.336C153.779 28.6907 153.245 26.3867 152.179 24.424C151.112 22.4613 149.661 20.968 147.827 19.944C146.035 18.92 144.051 18.408 141.875 18.408C139.741 18.408 137.757 18.9413 135.923 20.008C134.131 21.032 132.68 22.5467 131.571 24.552C130.504 26.5147 129.971 28.7973 129.971 31.4C129.971 34.0453 130.504 36.3707 131.571 38.376C132.68 40.3387 134.131 41.8533 135.923 42.92C137.757 43.944 139.741 44.456 141.875 44.456C144.051 44.456 146.035 43.944 147.827 42.92C149.661 41.8533 151.112 40.3387 152.179 38.376C153.245 36.3707 153.779 34.024 153.779 31.336Z" fill="white"/>
</svg>
