<svg width="1400" height="20" viewBox="0 0 1400 20" fill="none" xmlns="http://www.w3.org/2000/svg">
<path fill-rule="evenodd" clip-rule="evenodd" d="M9.64844 8.5C9.64844 7.67157 10.32 7 11.1484 7H1398.5C1399.33 7 1400 7.67157 1400 8.5C1400 9.32843 1399.33 10 1398.5 10H11.1484C10.32 10 9.64844 9.32843 9.64844 8.5Z" fill="white"/>
<path fill-rule="evenodd" clip-rule="evenodd" d="M9.70898 9C9.70898 7.89543 10.6044 7 11.709 7H130.039C131.144 7 132.039 7.89543 132.039 9C132.039 10.1046 131.144 11 130.039 11H11.709C10.6044 11 9.70898 10.1046 9.70898 9Z" fill="#548BCD"/>
<path fill-rule="evenodd" clip-rule="evenodd" d="M10.1942 20C15.8243 20 20.3883 15.5228 20.3883 10C20.3883 4.47715 15.8243 0 10.1942 0C4.56409 0 0 4.47715 0 10C0 15.5228 4.56409 20 10.1942 20Z" fill="#548BCD"/>
</svg>
