<svg width="160" height="54" viewBox="0 0 160 54" fill="none" xmlns="http://www.w3.org/2000/svg">
<path d="M19.7324 30.6592H6.94922L6.88086 23.6182H17.6133C19.5046 23.6182 21.054 23.3789 22.2617 22.9004C23.4694 22.3991 24.3695 21.6813 24.9619 20.7471C25.5771 19.79 25.8848 18.6279 25.8848 17.2607C25.8848 15.7113 25.5885 14.458 24.9961 13.501C24.4264 12.5439 23.5264 11.849 22.2959 11.416C21.0882 10.9831 19.5273 10.7666 17.6133 10.7666H10.5039V52.5H0.25V2.73438H17.6133C20.5072 2.73438 23.0934 3.00781 25.3721 3.55469C27.6735 4.10156 29.6217 4.93327 31.2168 6.0498C32.8118 7.16634 34.0309 8.5791 34.874 10.2881C35.7171 11.9743 36.1387 13.9795 36.1387 16.3037C36.1387 18.3545 35.6715 20.2458 34.7373 21.9775C33.8258 23.7093 32.3789 25.1221 30.3965 26.2158C28.4368 27.3096 25.8734 27.9134 22.7061 28.0273L19.7324 30.6592ZM19.2881 52.5H4.14648L8.14551 44.502H19.2881C21.0882 44.502 22.5579 44.2171 23.6973 43.6475C24.8366 43.055 25.6797 42.2575 26.2266 41.2549C26.7734 40.2523 27.0469 39.1016 27.0469 37.8027C27.0469 36.3444 26.7962 35.0798 26.2949 34.0088C25.8164 32.9378 25.0417 32.1175 23.9707 31.5479C22.8997 30.9554 21.487 30.6592 19.7324 30.6592H9.85449L9.92285 23.6182H22.2275L24.5859 26.3867C27.6165 26.3411 30.0547 26.8766 31.9004 27.9932C33.7689 29.0869 35.1247 30.5111 35.9678 32.2656C36.8337 34.0202 37.2666 35.9001 37.2666 37.9053C37.2666 41.0954 36.5716 43.7842 35.1816 45.9717C33.7917 48.1364 31.7523 49.7656 29.0635 50.8594C26.3975 51.9531 23.139 52.5 19.2881 52.5ZM63.7559 27.2754V35H44.4443V27.2754H63.7559ZM104.088 47.1338V52.5H79.2051V47.1338H104.088ZM80.5039 2.73438V52.5H73.9072V2.73438H80.5039ZM117.555 15.5176V52.5H111.197V15.5176H117.555ZM110.719 5.70801C110.719 4.68262 111.026 3.81673 111.642 3.11035C112.28 2.40397 113.214 2.05078 114.444 2.05078C115.652 2.05078 116.575 2.40397 117.213 3.11035C117.874 3.81673 118.204 4.68262 118.204 5.70801C118.204 6.68783 117.874 7.53092 117.213 8.2373C116.575 8.9209 115.652 9.2627 114.444 9.2627C113.214 9.2627 112.28 8.9209 111.642 8.2373C111.026 7.53092 110.719 6.68783 110.719 5.70801ZM127.672 0H134.029V45.3223L133.482 52.5H127.672V0ZM159.015 33.7012V34.4189C159.015 37.1077 158.696 39.6029 158.058 41.9043C157.42 44.1829 156.485 46.1654 155.255 47.8516C154.024 49.5378 152.521 50.848 150.743 51.7822C148.966 52.7165 146.926 53.1836 144.625 53.1836C142.278 53.1836 140.216 52.7848 138.438 51.9873C136.684 51.167 135.203 49.9935 133.995 48.4668C132.787 46.9401 131.819 45.0944 131.09 42.9297C130.383 40.765 129.894 38.3268 129.62 35.6152V32.4707C129.894 29.7363 130.383 27.2868 131.09 25.1221C131.819 22.9574 132.787 21.1117 133.995 19.585C135.203 18.0355 136.684 16.862 138.438 16.0645C140.193 15.2441 142.232 14.834 144.557 14.834C146.881 14.834 148.943 15.2897 150.743 16.2012C152.543 17.0898 154.047 18.3659 155.255 20.0293C156.485 21.6927 157.42 23.6865 158.058 26.0107C158.696 28.3122 159.015 30.8757 159.015 33.7012ZM152.657 34.4189V33.7012C152.657 31.8555 152.486 30.1237 152.145 28.5059C151.803 26.8652 151.256 25.4297 150.504 24.1992C149.752 22.946 148.761 21.9661 147.53 21.2598C146.3 20.5306 144.785 20.166 142.984 20.166C141.389 20.166 139.999 20.4395 138.814 20.9863C137.652 21.5332 136.661 22.2738 135.841 23.208C135.021 24.1195 134.348 25.1676 133.824 26.3525C133.323 27.5146 132.947 28.7223 132.696 29.9756V38.2129C133.061 39.8079 133.653 41.346 134.474 42.8271C135.317 44.2855 136.433 45.4818 137.823 46.416C139.236 47.3503 140.979 47.8174 143.053 47.8174C144.762 47.8174 146.22 47.4756 147.428 46.792C148.658 46.0856 149.649 45.1172 150.401 43.8867C151.176 42.6562 151.746 41.2321 152.11 39.6143C152.475 37.9964 152.657 36.2646 152.657 34.4189Z" fill="white"/>
</svg>
